<svg xmlns="http://www.w3.org/2000/svg" viewBox="0 0 256 256" role="img" aria-label="Thilomi's Math Adventure icon">
  <defs>
    <linearGradient id="sky" x1="0" x2="1" y1="0" y2="1">
      <stop offset="0%" stop-color="#7bd7ff" />
      <stop offset="100%" stop-color="#ffd36d" />
    </linearGradient>
  </defs>
  <rect width="256" height="256" rx="56" fill="url(#sky)" />
  <circle cx="92" cy="94" r="36" fill="#fff8c7" />
  <path d="M77 153c24-18 40-18 64 0 18 14 34 16 56 7-4 31-31 54-69 54-39 0-69-23-77-61 10 3 18 4 26 0Z" fill="#fff" opacity="0.95" />
  <path d="M100 96c0-17 13-31 30-31 16 0 30 13 30 30 0 13-8 24-19 28-3 1-4 4-4 7v6h-20v-10c0-6 3-11 8-13 10-4 15-11 15-19 0-9-7-16-16-16-10 0-17 7-17 16H100Z" fill="#3b63ff" />
  <circle cx="129" cy="180" r="14" fill="#ff6f61" />
  <circle cx="181" cy="177" r="10" fill="#ffffff" opacity="0.9" />
</svg>
